<svg xmlns="http://www.w3.org/2000/svg"><symbol id="icon-arrow" viewBox="0 0 32 32">
<path fill-rule="evenodd" clip-rule="evenodd" d="M32 14H7.6L18.8 2.8L16 0L0 16L16 32L18.8 29.2L7.6 18H32V14Z" fill="#FAFAFA"/>
</symbol><symbol id="icon-facebook" viewBox="0 0 16 16">
<path fill-rule="evenodd" clip-rule="evenodd" d="M8 0C3.58882 0 0 3.58882 0 8C0 12.4109 3.58882 16 8 16C12.4109 16 16 12.4109 16 8C16 3.58882 12.4115 0 8 0ZM9.98947 8.28167H8.68793C8.68793 10.3611 8.68793 12.9207 8.68793 12.9207H6.75931C6.75931 12.9207 6.75931 10.3859 6.75931 8.28167H5.84253V6.6421H6.75931V5.5816C6.75931 4.82207 7.12022 3.63525 8.70566 3.63525L10.1348 3.64073V5.23229C10.1348 5.23229 9.26636 5.23229 9.0975 5.23229C8.92865 5.23229 8.68858 5.31672 8.68858 5.67892V6.64242H10.158L9.98947 8.28167Z" fill="#D3D3D3"/>
</symbol><symbol id="icon-instagram" viewBox="0 0 16 16">
<path fill-rule="evenodd" clip-rule="evenodd" d="M7.94401 9.5348C8.82049 9.5348 9.53505 8.82152 9.53505 7.9444C9.53505 7.59816 9.42177 7.27848 9.23425 7.01736C8.94529 6.61672 8.47553 6.354 7.94497 6.354C7.41409 6.354 6.94465 6.6164 6.65505 7.01704C6.46689 7.27816 6.35457 7.59784 6.35425 7.94408C6.35329 8.8212 7.06721 9.5348 7.94401 9.5348Z" fill="#D3D3D3"/>
<path fill-rule="evenodd" clip-rule="evenodd" d="M11.417 5.99881V4.66569V4.46729L11.2176 4.46793L9.88513 4.47209L9.89025 6.00393L11.417 5.99881Z" fill="#D3D3D3"/>
<path fill-rule="evenodd" clip-rule="evenodd" d="M7.94432 0C3.56384 0 0 3.56384 0 7.94432C0 12.3245 3.56384 15.8886 7.94432 15.8886C12.3245 15.8886 15.8886 12.3245 15.8886 7.94432C15.8886 3.56384 12.3251 0 7.94432 0ZM12.4624 7.01723V10.7164C12.4624 11.68 11.6791 12.463 10.7162 12.463H5.17251C4.20931 12.463 3.42627 11.68 3.42627 10.7164V7.01723V5.17275C3.42627 4.20955 4.20931 3.42651 5.17251 3.42651H10.7159C11.6791 3.42651 12.4624 4.20955 12.4624 5.17275V7.01723Z" fill="#D3D3D3"/>
<path fill-rule="evenodd" clip-rule="evenodd" d="M10.4157 7.94437C10.4157 9.30661 9.30723 10.4157 7.94435 10.4157C6.58147 10.4157 5.47331 9.30661 5.47331 7.94437C5.47331 7.61669 5.53859 7.30341 5.65507 7.01733H4.30627V10.7165C4.30627 11.1946 4.69443 11.5818 5.17219 11.5818H10.7156C11.1927 11.5818 11.5815 11.1946 11.5815 10.7165V7.01733H10.232C10.3495 7.30341 10.4157 7.61669 10.4157 7.94437Z" fill="#D3D3D3"/>
</symbol><symbol id="icon-interface-footer" viewBox="0 0 17 16">
<path fill-rule="evenodd" clip-rule="evenodd" d="M17 7.44828C17 11.5553 13.1869 14.8966 8.5 14.8966C7.29215 14.8966 6.12595 14.6786 5.03115 14.2486C3.10278 15.3321 0.437466 15.7057 0.322716 15.7214C0.309399 15.7233 0.296366 15.7241 0.283333 15.7241C0.177082 15.7241 0.0779171 15.6659 0.0297508 15.5713C-0.0246487 15.4651 -0.00311661 15.3368 0.0830173 15.2532C0.734684 14.6188 1.18348 13.2803 1.35093 11.477C0.466366 10.2745 0 8.88386 0 7.44828C0 3.34124 3.8131 0 8.5 0C13.1869 0 17 3.34124 17 7.44828ZM5.66663 7.44817C5.66663 6.83962 5.15833 6.34473 4.53329 6.34473C3.90826 6.34473 3.39996 6.83962 3.39996 7.44817C3.39996 8.05673 3.90826 8.55162 4.53329 8.55162C5.15833 8.55162 5.66663 8.05673 5.66663 7.44817ZM9.6333 7.44817C9.6333 6.83962 9.125 6.34473 8.49997 6.34473C7.87493 6.34473 7.36663 6.83962 7.36663 7.44817C7.36663 8.05673 7.87493 8.55162 8.49997 8.55162C9.125 8.55162 9.6333 8.05673 9.6333 7.44817ZM13.6 7.44817C13.6 6.83962 13.0917 6.34473 12.4666 6.34473C11.8416 6.34473 11.3333 6.83962 11.3333 7.44817C11.3333 8.05673 11.8416 8.55162 12.4666 8.55162C13.0917 8.55162 13.6 8.05673 13.6 7.44817Z" fill="#D3D3D3"/>
</symbol><symbol id="icon-interface" viewBox="0 0 94 80">
<path fill-rule="evenodd" clip-rule="evenodd" d="M86.7624 26.3905C82.2393 21.8755 75.9119 18.6604 68.9458 17.337C68.1052 17.1778 67.2945 17.7334 67.1356 18.5791C66.9768 19.4248 67.5296 20.24 68.3707 20.3998C81.6362 22.9199 90.9011 32.1929 90.9011 42.9498C90.9011 51.8093 84.6306 59.7719 74.5369 63.7303C74.0216 63.9325 73.6524 64.3954 73.5683 64.9453C72.956 68.9453 73.7919 73.0161 75.8345 76.4073C71.3745 75.2092 67.762 71.7667 66.357 67.1019C66.1446 66.3967 65.4682 65.9362 64.74 66.0013C63.6457 66.0969 62.5427 66.1455 61.4616 66.1455C51.8221 66.1455 42.7739 62.4052 37.2577 56.1401C36.6906 55.4957 35.7113 55.4359 35.0705 56.0065C34.4298 56.5771 34.3703 57.562 34.9376 58.2064C41.033 65.1292 50.9486 69.2624 61.4616 69.2624C62.2338 69.2624 63.016 69.2395 63.7987 69.1942C64.922 72.1081 66.8543 74.7024 69.3297 76.5924C72.2375 78.8127 75.7033 79.9861 79.3519 79.9861C79.9773 79.9861 80.5413 79.6079 80.782 79.0273C81.0226 78.4468 80.8927 77.7777 80.4527 77.3307C77.5955 74.4297 76.1607 70.3541 76.5263 66.2826C81.53 64.1698 85.7726 61.0394 88.8381 57.1896C92.215 52.9488 94 48.025 94 42.9498C94 36.9303 91.4298 31.0494 86.7624 26.3905Z" fill="#ECB84C"/>
<path fill-rule="evenodd" clip-rule="evenodd" d="M65.0769 26.3265C65.0769 19.2293 61.6454 12.5798 55.4143 7.60252C49.2882 2.70902 41.1639 0.0141602 32.5385 0.0141602C23.9124 0.0141602 15.7879 2.70902 9.66217 7.60252C3.43131 12.5798 0 19.2293 0 26.3265C0 31.4016 1.78497 36.3256 5.16174 40.5663C8.22717 44.4158 12.47 47.5464 17.4735 49.6593C17.8391 53.7307 16.4043 57.8064 13.5472 60.7074C13.1071 61.1541 12.9772 61.8234 13.2178 62.404C13.4585 62.9845 14.0227 63.3627 14.6479 63.3627C18.2967 63.3627 21.7623 62.1893 24.6701 59.9691C27.1455 58.0792 29.0778 55.4847 30.2011 52.5708C30.9838 52.6161 31.766 52.639 32.5383 52.639C41.1639 52.639 49.2882 49.9441 55.4141 45.0506C61.6454 40.0732 65.0769 33.4236 65.0769 26.3265ZM29.26 49.3777C28.5295 49.3135 27.8554 49.7729 27.643 50.4784C26.238 55.1429 22.6257 58.5854 18.1655 59.7835C20.2081 56.3925 21.044 52.3215 20.4317 48.3215C20.3476 47.7717 19.9784 47.3087 19.4631 47.1065C9.3694 43.1485 3.09888 35.1859 3.09888 26.3265C3.09888 13.5364 16.3054 3.13104 32.5384 3.13104C48.7715 3.13104 61.978 13.5364 61.978 26.3265C61.978 39.1165 48.7715 49.5219 32.5384 49.5219C31.4573 49.5219 30.3543 49.4735 29.26 49.3777Z" fill="#ECB84C"/>
</symbol><symbol id="icon-logo-footer" viewBox="0 0 149 27">
<path d="M12.784 6.892V26H6.97V6.892H0.17V1.928H19.584V6.892H12.784ZM30.34 15.596C30.34 14.712 30.0566 13.9527 29.49 13.318C28.946 12.6833 28.1186 12.366 27.008 12.366C26.464 12.366 25.9653 12.4567 25.512 12.638C25.0586 12.7967 24.662 13.0233 24.322 13.318C23.982 13.6127 23.71 13.964 23.506 14.372C23.302 14.7573 23.1886 15.1653 23.166 15.596H30.34ZM35.474 17.738C35.474 17.9647 35.474 18.1913 35.474 18.418C35.474 18.6447 35.4626 18.86 35.44 19.064H23.166C23.2113 19.54 23.3473 19.9707 23.574 20.356C23.8233 20.7413 24.1293 21.0813 24.492 21.376C24.8773 21.648 25.2966 21.8633 25.75 22.022C26.226 22.1807 26.7133 22.26 27.212 22.26C28.096 22.26 28.844 22.1013 29.456 21.784C30.068 21.444 30.5666 21.0133 30.952 20.492L34.828 22.94C34.0346 24.096 32.9806 24.9913 31.666 25.626C30.374 26.238 28.8666 26.544 27.144 26.544C25.8746 26.544 24.6733 26.3513 23.54 25.966C22.4066 25.558 21.4093 24.98 20.548 24.232C19.7093 23.4613 19.0406 22.5207 18.542 21.41C18.066 20.2993 17.828 19.03 17.828 17.602C17.828 16.2193 18.066 14.9727 18.542 13.862C19.018 12.7287 19.664 11.7767 20.48 11.006C21.296 10.2127 22.2593 9.60067 23.37 9.17C24.4806 8.73933 25.682 8.524 26.974 8.524C28.2206 8.524 29.3653 8.73933 30.408 9.17C31.4506 9.578 32.346 10.1787 33.094 10.972C33.842 11.7653 34.42 12.7287 34.828 13.862C35.2586 14.9953 35.474 16.2873 35.474 17.738ZM48.8939 14.066C48.4405 13.6353 47.9079 13.2727 47.2959 12.978C46.6839 12.6833 46.0379 12.536 45.3579 12.536C44.8365 12.536 44.3492 12.638 43.8959 12.842C43.4652 13.046 43.2499 13.3973 43.2499 13.896C43.2499 14.372 43.4879 14.712 43.9639 14.916C44.4625 15.12 45.2559 15.3467 46.3439 15.596C46.9785 15.732 47.6132 15.9247 48.2479 16.174C48.9052 16.4233 49.4945 16.752 50.0159 17.16C50.5372 17.568 50.9565 18.0667 51.2739 18.656C51.5912 19.2453 51.7499 19.948 51.7499 20.764C51.7499 21.8293 51.5345 22.736 51.1039 23.484C50.6732 24.2093 50.1065 24.7987 49.4039 25.252C48.7239 25.7053 47.9532 26.034 47.0919 26.238C46.2305 26.442 45.3692 26.544 44.5079 26.544C43.1252 26.544 41.7652 26.3287 40.4279 25.898C39.1132 25.4447 38.0139 24.7873 37.1299 23.926L40.2579 20.628C40.7565 21.172 41.3685 21.6253 42.0939 21.988C42.8192 22.3507 43.5899 22.532 44.4059 22.532C44.8592 22.532 45.3012 22.43 45.7319 22.226C46.1852 21.9993 46.4119 21.614 46.4119 21.07C46.4119 20.5487 46.1399 20.1633 45.5959 19.914C45.0519 19.6647 44.2019 19.404 43.0459 19.132C42.4565 18.996 41.8672 18.8147 41.2779 18.588C40.6885 18.3613 40.1559 18.0553 39.6799 17.67C39.2265 17.2847 38.8525 16.8087 38.5579 16.242C38.2632 15.6753 38.1159 14.9953 38.1159 14.202C38.1159 13.182 38.3312 12.3207 38.7619 11.618C39.1925 10.8927 39.7479 10.3033 40.4279 9.85C41.1079 9.39667 41.8559 9.068 42.6719 8.864C43.5105 8.63733 44.3379 8.524 45.1539 8.524C46.4232 8.524 47.6585 8.728 48.8599 9.136C50.0839 9.52133 51.1152 10.1107 51.9539 10.904L48.8939 14.066ZM61.021 13.25V19.71C61.021 20.5033 61.1683 21.104 61.463 21.512C61.7803 21.8973 62.3356 22.09 63.129 22.09C63.401 22.09 63.6843 22.0673 63.979 22.022C64.2963 21.9767 64.557 21.9087 64.761 21.818L64.829 25.898C64.4436 26.034 63.9563 26.1473 63.367 26.238C62.7776 26.3513 62.1883 26.408 61.599 26.408C60.4656 26.408 59.5136 26.272 58.743 26C57.9723 25.7053 57.349 25.2973 56.873 24.776C56.4196 24.232 56.091 23.5973 55.887 22.872C55.683 22.124 55.581 21.2967 55.581 20.39V13.25H52.861V9.068H55.547V4.614H61.021V9.068H64.999V13.25H61.021ZM74.7254 21.104H74.7934L80.4374 1.928H84.1434L89.7534 21.104H89.8214L95.1254 1.928H98.6954L91.6234 26H88.1214L82.2734 6.654H82.2054L76.3574 26H72.8554L65.7834 1.928H69.4214L74.7254 21.104ZM116.89 17.908C116.89 19.1547 116.664 20.2993 116.21 21.342C115.78 22.3847 115.168 23.2913 114.374 24.062C113.604 24.81 112.686 25.3993 111.62 25.83C110.555 26.238 109.41 26.442 108.186 26.442C106.962 26.442 105.818 26.238 104.752 25.83C103.687 25.3993 102.769 24.81 101.998 24.062C101.228 23.2913 100.616 22.3847 100.162 21.342C99.7317 20.2993 99.5164 19.1547 99.5164 17.908C99.5164 16.6613 99.7317 15.528 100.162 14.508C100.616 13.4653 101.228 12.57 101.998 11.822C102.769 11.074 103.687 10.496 104.752 10.088C105.818 9.65733 106.962 9.442 108.186 9.442C109.41 9.442 110.555 9.65733 111.62 10.088C112.686 10.496 113.604 11.074 114.374 11.822C115.168 12.57 115.78 13.4653 116.21 14.508C116.664 15.528 116.89 16.6613 116.89 17.908ZM113.558 17.908C113.558 17.1373 113.434 16.4007 113.184 15.698C112.958 14.9953 112.618 14.3833 112.164 13.862C111.711 13.318 111.144 12.8873 110.464 12.57C109.807 12.2527 109.048 12.094 108.186 12.094C107.325 12.094 106.554 12.2527 105.874 12.57C105.217 12.8873 104.662 13.318 104.208 13.862C103.755 14.3833 103.404 14.9953 103.154 15.698C102.928 16.4007 102.814 17.1373 102.814 17.908C102.814 18.6787 102.928 19.4153 103.154 20.118C103.404 20.8207 103.755 21.444 104.208 21.988C104.662 22.532 105.217 22.9627 105.874 23.28C106.554 23.5973 107.325 23.756 108.186 23.756C109.048 23.756 109.807 23.5973 110.464 23.28C111.144 22.9627 111.711 22.532 112.164 21.988C112.618 21.444 112.958 20.8207 113.184 20.118C113.434 19.4153 113.558 18.6787 113.558 17.908ZM121.322 13.352C121.322 12.9213 121.311 12.366 121.288 11.686C121.266 11.006 121.232 10.4053 121.186 9.884H124.212C124.258 10.292 124.292 10.768 124.314 11.312C124.337 11.8333 124.348 12.264 124.348 12.604H124.45C124.904 11.652 125.561 10.8927 126.422 10.326C127.306 9.73667 128.292 9.442 129.38 9.442C129.879 9.442 130.298 9.48733 130.638 9.578L130.502 12.536C130.049 12.4227 129.562 12.366 129.04 12.366C128.27 12.366 127.601 12.5133 127.034 12.808C126.468 13.08 125.992 13.454 125.606 13.93C125.244 14.406 124.972 14.9613 124.79 15.596C124.609 16.208 124.518 16.854 124.518 17.534V26H121.322V13.352ZM136.905 16.888H137.007L143.773 9.884H148.057L140.509 17.194L148.703 26H144.283L137.007 17.636H136.905V26H133.709V0.295999H136.905V16.888Z" fill="#37C491"/>
</symbol><symbol id="icon-restaurant" viewBox="0 0 80 76">
<path fill-rule="evenodd" clip-rule="evenodd" d="M74.4828 0.0376587H68.9656H66.0691H57.9311H55.1725H46.8966H44.138H35.862H33.1034H24.8275H22.0689H13.7931H11.0345H5.37937C2.34484 0.0376587 0 2.38443 0 5.42146V16.603C0 18.5357 0.827656 20.4682 2.20688 21.7106C2.80594 22.1904 3.45734 22.5917 4.13797 22.8924V30.4075V74.5818C4.13797 75.4101 4.68969 75.9623 5.51734 75.9623H12.4139H31.7242H74.4828C75.3105 75.9623 75.8622 75.4101 75.8622 74.5818V30.4078V30.4076V22.896C78.2812 21.7327 80 19.1595 80 16.327V5.42146C80 2.38443 77.6552 0.0376587 74.4828 0.0376587ZM57.9311 2.79871H66.0691V16.6032C66.0691 16.8804 66.0911 17.1574 66.1292 17.4326C65.7622 19.3598 64.1287 20.7446 62.0691 20.7446C59.7242 20.7446 57.9311 18.95 57.9311 16.6032V2.79871ZM46.8965 2.79871H55.1725V16.6032C55.1725 18.95 53.3794 20.7446 51.0345 20.7446C48.6897 20.7446 46.8965 18.95 46.8965 16.6032V2.79871ZM35.8621 2.79871H44.138V16.6032C44.138 18.95 42.3449 20.7446 40 20.7446C37.6552 20.7446 35.8621 18.95 35.8621 16.6032V2.79871ZM24.8276 2.79871H33.1036V16.6032C33.1036 18.95 31.3104 20.7446 28.9656 20.7446C26.6208 20.7446 24.8276 18.95 24.8276 16.6032V2.79871ZM13.7932 2.79871H22.0691V16.6032C22.0691 18.95 20.276 20.7446 17.9311 20.7446C15.5863 20.7446 13.7932 18.95 13.7932 16.6032V16.327V2.79871ZM2.75861 16.603V5.42149C2.75861 3.90305 3.86204 2.79871 5.37923 2.79871H11.0344V16.327C11.0344 18.3915 9.58814 20.2144 7.7097 20.6692C7.50532 20.7073 7.29501 20.7314 7.07954 20.74C6.03704 20.7033 4.90829 20.411 4.13782 19.6401C3.31032 18.9498 2.75861 17.7074 2.75861 16.603ZM7.58623 23.5052C8.13217 23.4397 8.66076 23.3044 9.16389 23.1097C10.4589 22.652 11.5972 21.8235 12.3969 20.7656C13.645 22.4387 15.6426 23.5052 17.9311 23.5052C20.2094 23.5052 22.199 22.4478 23.4483 20.7874C24.6975 22.4478 26.6872 23.5052 28.9655 23.5052C31.2437 23.5052 33.2334 22.4478 34.4826 20.7874C35.7319 22.4478 37.7215 23.5052 39.9998 23.5052C42.2781 23.5052 44.2678 22.4478 45.517 20.7874C46.7662 22.4478 48.7559 23.5052 51.0342 23.5052C53.3125 23.5052 55.3022 22.4478 56.5514 20.7874C57.8006 22.4478 59.7903 23.5052 62.0686 23.5052C64.3403 23.5052 66.3248 22.4537 67.5747 20.8016C67.8311 21.1323 68.1115 21.4388 68.4133 21.7106C68.6342 21.8876 68.8631 22.0526 69.097 22.2071C70.0731 22.9002 71.2397 23.3548 72.4728 23.4721C72.4829 23.4732 72.4931 23.4739 72.5033 23.4749C72.5876 23.4825 72.6719 23.4899 72.7569 23.4944C72.8722 23.501 72.9875 23.5052 73.1028 23.5052V29.027H6.89655V23.5052C7.17233 23.5052 7.3103 23.5052 7.58623 23.5052ZM13.7932 73.2012V37.3097H30.3449V56.6359H27.5863C26.7586 56.6359 26.2069 57.1881 26.2069 58.0164C26.2069 58.8447 26.7586 59.3969 27.5863 59.3969H30.3449V73.2014H13.7932V73.2012ZM73.1034 73.2012H33.1034V35.9293C33.1034 35.101 32.5517 34.5488 31.724 34.5488H12.4137C11.5861 34.5488 11.0344 35.101 11.0344 35.9293V73.2014H6.89655V31.788H73.1034V73.2012ZM77.2414 16.327C77.2414 18.3667 75.9909 19.9885 74.3053 20.5596C74.2265 20.5668 74.1478 20.5802 74.0689 20.6065C73.8658 20.7081 73.5881 20.7347 73.3456 20.7417C72.2869 20.7141 71.1298 20.4257 70.3448 19.6401C69.5172 18.9498 68.9655 17.7074 68.9655 16.603V2.79871H74.6206C76.1378 2.79871 77.2412 4.04113 77.2412 5.42149V16.327H77.2414Z" fill="#ECB84C"/>
<path fill-rule="evenodd" clip-rule="evenodd" d="M38.6206 67.6796H45.5172H62.0689H68.9655C69.7931 67.6796 70.3448 67.1274 70.3448 66.2991V35.9294C70.3448 35.1011 69.7931 34.5489 68.9655 34.5489H60.6895H46.8964H38.6205C37.7928 34.5489 37.2411 35.1011 37.2411 35.9294V66.2992C37.2414 67.1274 37.7931 67.6796 38.6206 67.6796ZM57.9311 60.7773C58.7587 60.7773 59.3104 60.2252 59.3104 59.3968C59.3104 58.5685 58.7587 58.0163 57.9311 58.0163H49.6551C48.8275 58.0163 48.2758 58.5685 48.2758 59.3968C48.2758 60.2252 48.8275 60.7773 49.6551 60.7773H52.4137V64.9187H46.8575C46.5854 60.0025 44.8703 55.8972 42.3447 53.8751C45.5992 51.1391 47.9925 44.959 48.2514 37.3098H59.3333C59.5786 44.959 61.8565 51.1391 65.2412 53.8751C62.7158 55.8972 61.0004 60.0025 60.7284 64.9187H55.1722V60.7773H57.9311ZM67.5863 64.9187H63.4483C63.8621 60.2251 65.6552 56.774 67.5863 55.6697V64.9187ZM67.5862 37.3098V52.0805C64.8276 50.5621 62.3448 45.0402 62.069 37.3098H67.5862ZM40 37.3098H45.5172C45.2413 45.0403 42.6206 50.5621 40 52.0805V37.3098ZM40 55.6697C42.0689 56.774 43.862 60.2251 44.138 64.9187H40V55.6697Z" fill="#ECB84C"/>
<path fill-rule="evenodd" clip-rule="evenodd" d="M27.5863 49.7337V41.4509C27.5863 40.6226 27.0345 40.0704 26.2069 40.0704H17.9309C17.1033 40.0704 16.5516 40.6226 16.5516 41.4509V49.7337C16.5516 50.562 17.1033 51.1142 17.9309 51.1142H26.2069C27.0345 51.1142 27.5863 50.562 27.5863 49.7337ZM24.8277 48.3533H19.3105V42.8316H24.8277V48.3533Z" fill="#ECB84C"/>
</symbol><symbol id="icon-route" viewBox="0 0 80 80">
<path fill-rule="evenodd" clip-rule="evenodd" d="M28.028 38.636C25 35.216 20.9627 33.3333 16.6574 33.3333C12.352 33.3333 8.31469 35.216 5.28803 38.636C-0.861308 45.584 -0.861308 56.8866 5.28803 63.8346L16.6574 76.6786L28.0267 63.8346C34.1774 56.8866 34.1774 45.584 28.028 38.636ZM26.0307 62.0667L16.6587 72.6547L7.28534 62.0667C1.99734 56.0947 1.99734 46.376 7.28534 40.404C9.79867 37.564 13.128 36 16.6573 36C20.1867 36 23.5173 37.564 26.0293 40.404C31.3173 46.376 31.3173 56.0933 26.0307 62.0667Z" fill="#ECB84C"/>
<path fill-rule="evenodd" clip-rule="evenodd" d="M64.996 32.676L73.6147 22.9613C78.252 17.7347 78.252 9.23333 73.6147 4.00667C71.3213 1.42267 68.26 0 64.9947 0C61.7307 0 58.6693 1.42267 56.376 4.00667C51.7387 9.23333 51.7387 17.7347 56.376 22.9613L64.996 32.676ZM58.3707 5.77735C60.1507 3.77069 62.5027 2.66669 64.9947 2.66669C67.488 2.66669 69.84 3.77069 71.62 5.77735C75.3907 10.0267 75.3907 16.9414 71.62 21.1907L64.996 28.6587L58.3707 21.1907C54.6 16.9414 54.6 10.0267 58.3707 5.77735Z" fill="#ECB84C"/>
<path fill-rule="evenodd" clip-rule="evenodd" d="M70.1386 72.6893C69.42 72.528 68.7066 72.9787 68.5453 73.6973C68.392 74.3773 68.0946 75.0027 67.6613 75.5533C67.2066 76.132 67.3053 76.9707 67.8853 77.4253C68.1306 77.6173 68.42 77.7107 68.708 77.7107C69.104 77.7107 69.4946 77.536 69.7573 77.2013C70.4293 76.348 70.9093 75.34 71.1466 74.284C71.308 73.564 70.8573 72.8507 70.1386 72.6893Z" fill="#ECB84C"/>
<path fill-rule="evenodd" clip-rule="evenodd" d="M42.66 41.3333C42.0827 41.332 41.5214 41.2293 40.9907 41.0267C40.308 40.7667 39.5334 41.1093 39.2694 41.7973C39.008 42.4853 39.3534 43.256 40.04 43.5187C40.8747 43.836 41.7534 43.9987 42.6574 44H43.1334C43.8707 44 44.4667 43.404 44.4667 42.6667C44.4667 41.9293 43.8707 41.3333 43.1334 41.3333H42.66Z" fill="#ECB84C"/>
<path fill-rule="evenodd" clip-rule="evenodd" d="M39.4947 32.9013C39.736 32.9013 39.9787 32.836 40.1987 32.7C40.7893 32.332 41.4427 32.1067 42.1373 32.0293C42.8693 31.948 43.3973 31.2893 43.3173 30.5573C43.2373 29.8253 42.5827 29.3027 41.8453 29.3773C40.7493 29.4987 39.72 29.8533 38.7867 30.436C38.1613 30.8253 37.972 31.648 38.3613 32.2733C38.6147 32.6787 39.0493 32.9013 39.4947 32.9013Z" fill="#ECB84C"/>
<path fill-rule="evenodd" clip-rule="evenodd" d="M24.0853 77.3333H21.4187C20.6813 77.3333 20.0853 77.9293 20.0853 78.6666C20.0853 79.404 20.6813 80 21.4187 80H24.0853C24.8227 80 25.4187 79.404 25.4187 78.6666C25.4187 77.9293 24.8213 77.3333 24.0853 77.3333Z" fill="#ECB84C"/>
<path fill-rule="evenodd" clip-rule="evenodd" d="M47.9907 53.3333C47.876 53.3333 47.7627 53.336 47.6493 53.3413C46.9133 53.3706 46.3427 53.992 46.372 54.728C46.4 55.4453 46.992 56.0066 47.7027 56.0066C47.7213 56.0066 47.74 56.0066 47.7587 56.0053L50.3707 56C51.108 56 51.704 55.404 51.704 54.6666C51.704 53.9293 51.108 53.3333 50.3707 53.3333H47.9907Z" fill="#ECB84C"/>
<path fill-rule="evenodd" clip-rule="evenodd" d="M47.324 32H49.9907C50.728 32 51.324 31.404 51.324 30.6666C51.324 29.9293 50.728 29.3333 49.9907 29.3333H47.324C46.5867 29.3333 45.9907 29.9293 45.9907 30.6666C45.9907 31.404 46.5867 32 47.324 32Z" fill="#ECB84C"/>
<path fill-rule="evenodd" clip-rule="evenodd" d="M63.704 53.3333C62.9667 53.3333 62.3707 53.9293 62.3707 54.6666C62.3707 55.404 62.9667 56 63.704 56H66.3707C67.108 56 67.704 55.404 67.704 54.6666C67.704 53.9293 67.108 53.3333 66.3707 53.3333H63.704Z" fill="#ECB84C"/>
<path fill-rule="evenodd" clip-rule="evenodd" d="M68.468 42.6666C68.468 41.9293 67.872 41.3333 67.1346 41.3333H64.468C63.7306 41.3333 63.1346 41.9293 63.1346 42.6666C63.1346 43.404 63.7306 44 64.468 44H67.1346C67.8706 44 68.468 43.404 68.468 42.6666Z" fill="#ECB84C"/>
<path fill-rule="evenodd" clip-rule="evenodd" d="M55.704 56H58.3707C59.108 56 59.704 55.404 59.704 54.6666C59.704 53.9293 59.108 53.3333 58.3707 53.3333H55.704C54.9667 53.3333 54.3707 53.9293 54.3707 54.6666C54.3707 55.404 54.968 56 55.704 56Z" fill="#ECB84C"/>
<path fill-rule="evenodd" clip-rule="evenodd" d="M57.9907 32C58.728 32 59.324 31.404 59.324 30.6666C59.324 29.9293 58.728 29.3333 57.9907 29.3333H55.324C54.5867 29.3333 53.9907 29.9293 53.9907 30.6666C53.9907 31.404 54.5867 32 55.324 32H57.9907Z" fill="#ECB84C"/>
<path fill-rule="evenodd" clip-rule="evenodd" d="M48.468 41.3333C47.7306 41.3333 47.1346 41.9293 47.1346 42.6666C47.1346 43.404 47.7306 44 48.468 44H51.1346C51.872 44 52.468 43.404 52.468 42.6666C52.468 41.9293 51.872 41.3333 51.1346 41.3333H48.468Z" fill="#ECB84C"/>
<path fill-rule="evenodd" clip-rule="evenodd" d="M60.468 42.6666C60.468 41.9293 59.872 41.3333 59.1346 41.3333H56.468C55.7306 41.3333 55.1346 41.9293 55.1346 42.6666C55.1346 43.404 55.7306 44 56.468 44H59.1346C59.8706 44 60.468 43.404 60.468 42.6666Z" fill="#ECB84C"/>
<path fill-rule="evenodd" clip-rule="evenodd" d="M79.2347 47.5093C79.1173 46.7813 78.4307 46.284 77.7067 46.404C76.9787 46.52 76.484 47.2053 76.6013 47.932C76.6387 48.1693 76.66 48.4106 76.6573 48.668C76.6573 49.116 76.5933 49.5586 76.468 49.9853C76.2613 50.692 76.6653 51.4333 77.3733 51.64C77.4987 51.676 77.624 51.6933 77.748 51.6933C78.3253 51.6933 78.8573 51.3173 79.028 50.7346C79.224 50.064 79.324 49.3693 79.324 48.6773C79.3267 48.2933 79.2973 47.9 79.2347 47.5093Z" fill="#ECB84C"/>
<path fill-rule="evenodd" clip-rule="evenodd" d="M56.0853 77.3333H53.4187C52.6813 77.3333 52.0853 77.9293 52.0853 78.6666C52.0853 79.404 52.6813 80 53.4187 80H56.0853C56.8227 80 57.4187 79.404 57.4187 78.6666C57.4187 77.9293 56.8213 77.3333 56.0853 77.3333Z" fill="#ECB84C"/>
<path fill-rule="evenodd" clip-rule="evenodd" d="M48.0853 77.3333H45.4187C44.6813 77.3333 44.0853 77.9293 44.0853 78.6666C44.0853 79.404 44.6813 80 45.4187 80H48.0853C48.8227 80 49.4187 79.404 49.4187 78.6666C49.4187 77.9293 48.8213 77.3333 48.0853 77.3333Z" fill="#ECB84C"/>
<path fill-rule="evenodd" clip-rule="evenodd" d="M62.7533 66.6666C62.7533 65.9293 62.1573 65.3333 61.42 65.3333H58.7533C58.016 65.3333 57.42 65.9293 57.42 66.6666C57.42 67.404 58.016 68 58.7533 68H61.42C62.156 68 62.7533 67.404 62.7533 66.6666Z" fill="#ECB84C"/>
<path fill-rule="evenodd" clip-rule="evenodd" d="M54.7533 66.6666C54.7533 65.9293 54.1573 65.3333 53.42 65.3333H50.7533C50.016 65.3333 49.42 65.9293 49.42 66.6666C49.42 67.404 50.016 68 50.7533 68H53.42C54.156 68 54.7533 67.404 54.7533 66.6666Z" fill="#ECB84C"/>
<path fill-rule="evenodd" clip-rule="evenodd" d="M63.9907 77.3333H61.4173C60.68 77.3333 60.084 77.9293 60.084 78.6666C60.084 79.404 60.68 80 61.4173 80L64.0453 79.9986L64.084 78.6653V79.9986C64.8213 79.9986 65.3707 79.4026 65.3707 78.6653C65.3707 77.9293 64.728 77.3333 63.9907 77.3333Z" fill="#ECB84C"/>
<path fill-rule="evenodd" clip-rule="evenodd" d="M68.708 70.292C68.996 70.292 69.288 70.1987 69.5307 70.0067C70.1107 69.5507 70.2093 68.712 69.7547 68.1347C69.084 67.2827 68.2187 66.5787 67.2493 66.0973C66.5867 65.768 65.7893 66.0387 65.4613 66.6973C65.1333 67.3573 65.4027 68.1573 66.0613 68.4853C66.6787 68.7907 67.2307 69.24 67.6573 69.784C67.9213 70.1173 68.312 70.292 68.708 70.292Z" fill="#ECB84C"/>
<path fill-rule="evenodd" clip-rule="evenodd" d="M73.7933 52.972C73.2213 53.212 72.616 53.3333 71.9907 53.3333H71.704C70.9667 53.3333 70.3707 53.9293 70.3707 54.6666C70.3707 55.404 70.9667 56 71.704 56H71.9907C72.972 56 73.9253 55.808 74.824 55.4306C75.504 55.1453 75.8227 54.364 75.5373 53.6853C75.2533 53.0066 74.4667 52.6866 73.7933 52.972Z" fill="#ECB84C"/>
<path fill-rule="evenodd" clip-rule="evenodd" d="M37.372 39.8066C38.0706 39.576 38.452 38.8226 38.2226 38.1226C38.0693 37.6546 37.9906 37.1653 37.9906 36.672C37.992 36.4706 38.004 36.2693 38.028 36.0733C38.12 35.3426 37.6026 34.6746 36.872 34.584C36.1186 34.5 35.4733 35.012 35.3826 35.74C35.3453 36.0413 35.3253 36.348 35.324 36.6653C35.324 37.4493 35.4466 38.22 35.688 38.956C35.8733 39.5173 36.3946 39.8733 36.9546 39.8733C37.0933 39.8733 37.2346 39.8533 37.372 39.8066Z" fill="#ECB84C"/>
<path fill-rule="evenodd" clip-rule="evenodd" d="M32.0853 77.3333H29.4187C28.6813 77.3333 28.0853 77.9293 28.0853 78.6666C28.0853 79.404 28.6813 80 29.4187 80H32.0853C32.8227 80 33.4187 79.404 33.4187 78.6666C33.4187 77.9293 32.8213 77.3333 32.0853 77.3333Z" fill="#ECB84C"/>
<path fill-rule="evenodd" clip-rule="evenodd" d="M45.496 67.4586C46.0027 67.4586 46.4854 67.1693 46.7094 66.68C47.0147 66.0093 46.7214 65.2186 46.052 64.9133C45.4267 64.6266 44.86 64.196 44.4147 63.6653C43.94 63.1013 43.1 63.028 42.536 63.5026C41.972 63.976 41.8987 64.8173 42.3734 65.3813C43.072 66.212 43.96 66.8893 44.9427 67.3373C45.1227 67.4186 45.3107 67.4586 45.496 67.4586Z" fill="#ECB84C"/>
<path fill-rule="evenodd" clip-rule="evenodd" d="M75.6613 42.3174C74.7093 41.7654 73.6693 41.4414 72.572 41.3547C71.84 41.3014 71.196 41.844 71.1386 42.58C71.0813 43.3147 71.6293 43.956 72.364 44.0134C73.06 44.068 73.72 44.2734 74.324 44.624C74.5346 44.7467 74.7653 44.804 74.992 44.804C75.452 44.804 75.9 44.5654 76.1466 44.14C76.516 43.504 76.2986 42.688 75.6613 42.3174Z" fill="#ECB84C"/>
<path fill-rule="evenodd" clip-rule="evenodd" d="M40.0853 77.3333H37.4187C36.6813 77.3333 36.0853 77.9293 36.0853 78.6666C36.0853 79.404 36.6813 80 37.4187 80H40.0853C40.8227 80 41.4187 79.404 41.4187 78.6666C41.4187 77.9293 40.8213 77.3333 40.0853 77.3333Z" fill="#ECB84C"/>
<path fill-rule="evenodd" clip-rule="evenodd" d="M43.4067 59.7853C43.5387 59.1 43.816 58.4666 44.232 57.9013C44.668 57.3093 44.5414 56.4746 43.948 56.0373C43.3547 55.6026 42.5214 55.728 42.084 56.3213C41.432 57.2093 40.9947 58.2053 40.7867 59.284C40.648 60.0066 41.1214 60.7053 41.8454 60.8453C41.9294 60.8613 42.0147 60.8693 42.0974 60.8693C42.724 60.8666 43.2827 60.4226 43.4067 59.7853Z" fill="#ECB84C"/>
<path fill-rule="evenodd" clip-rule="evenodd" d="M65.324 20C69.3667 20 72.6573 16.7093 72.6573 12.6666C72.6573 8.62398 69.3667 5.33331 65.324 5.33331C61.2813 5.33331 57.9907 8.62398 57.9907 12.6666C57.9907 16.7093 61.2813 20 65.324 20ZM65.324 8C67.8973 8 69.9907 10.0933 69.9907 12.6667C69.9907 15.24 67.8973 17.3333 65.324 17.3333C62.7507 17.3333 60.6573 15.24 60.6573 12.6667C60.6573 10.0933 62.752 8 65.324 8Z" fill="#ECB84C"/>
<path fill-rule="evenodd" clip-rule="evenodd" d="M16.6573 41.3333C12.2453 41.3333 8.65735 44.9213 8.65735 49.3333C8.65735 53.7453 12.2453 57.3333 16.6573 57.3333C21.0693 57.3333 24.6573 53.7453 24.6573 49.3333C24.6573 44.9213 21.0693 41.3333 16.6573 41.3333ZM16.6574 54.6667C13.716 54.6667 11.324 52.2747 11.324 49.3333C11.324 46.392 13.716 44 16.6574 44C19.5987 44 21.9907 46.392 21.9907 49.3333C21.9907 52.2747 19.5987 54.6667 16.6574 54.6667Z" fill="#ECB84C"/>
</symbol><symbol id="icon-transport" viewBox="0 0 94 72">
<path fill-rule="evenodd" clip-rule="evenodd" d="M93.527 25.1102C93.0499 24.2279 92.2592 23.5845 91.3006 23.2992L13.6322 0.177142C13.2856 0.0740558 12.9273 0.0214844 12.5679 0.0214844C10.9228 0.0214844 9.44751 1.12846 8.97978 2.71314L0.154483 32.6098C-0.4036 34.5006 0.596032 36.4869 2.39887 37.1835V68.2014C2.39887 70.2741 4.07813 71.9607 6.14226 71.9607H87.1516C89.2157 71.9607 90.895 70.2741 90.895 68.2014V37.9015L93.8258 27.9723C94.1105 27.0091 94.0043 25.9927 93.527 25.1102ZM88.164 68.2014C88.164 68.7618 87.7099 69.2178 87.1518 69.2178H66.3025V67.5817C66.3025 66.8244 65.6912 66.2103 64.9369 66.2103C64.1826 66.2103 63.5713 66.8244 63.5713 67.5817V69.2178H6.14228C5.58419 69.2178 5.13013 68.7618 5.13013 68.2014V38.0123L17.7566 41.7712L16.8728 42.6587L10.6982 41.9794L9.41953 43.0192L14.333 45.2091L12.6164 46.9332L10.7856 46.7534C10.7544 46.7504 10.7242 46.7623 10.7023 46.7851L10.0614 47.4288C10.0199 47.4674 10.0168 47.5328 10.0552 47.5753C10.0648 47.5858 10.0764 47.594 10.0891 47.5995L11.6824 48.3278C11.6876 48.5895 11.7891 48.8494 11.9876 49.0489C12.1865 49.2482 12.4453 49.3504 12.7057 49.3556L13.4326 50.9536C13.4561 51.0059 13.5171 51.029 13.5687 51.0059C13.5799 51.0007 13.5904 50.994 13.599 50.9854L14.2399 50.3376C14.2625 50.3159 14.2738 50.2855 14.2716 50.2542L14.0922 48.4194L15.8104 46.6937L17.9913 51.6283L19.0266 50.344L18.3504 44.1431L20.0358 42.4503L22.8731 43.2948V44.0446C22.8731 44.2971 23.0771 44.5017 23.3283 44.5017H26.927L37.2772 47.5828H23.3283C23.0771 47.5828 22.8731 47.7876 22.8731 48.04V50.9508C22.8731 51.2034 23.0771 51.408 23.3283 51.408H50.1265L63.6138 55.4231C63.587 55.5303 63.571 55.642 63.571 55.7577V61.6697C63.571 62.427 64.1824 63.0411 64.9367 63.0411C65.6909 63.0411 66.3023 62.427 66.3023 61.6697V56.2233L80.3483 60.4048C80.695 60.5081 81.0535 60.5604 81.4128 60.5604C83.0577 60.5604 84.533 59.4537 85.0012 57.8692L88.164 47.1545V68.2014ZM91.2075 27.1925L82.3828 57.0894C82.2561 57.5182 81.8573 57.8176 81.413 57.8176C81.3163 57.8176 81.2193 57.8032 81.1246 57.7751L61.1352 51.8242L61.5981 50.2558C61.8123 49.5296 61.4001 48.7664 60.6768 48.5511C59.9542 48.3362 59.1937 48.7497 58.9793 49.4761L58.5164 51.0448L3.45606 34.6533C2.92097 34.4939 2.61439 33.9271 2.77325 33.3897L11.5981 3.4928C11.7246 3.064 12.1234 2.76434 12.5677 2.76434C12.6644 2.76434 12.7616 2.77874 12.8561 2.80686L67.9164 19.1986L67.3447 21.1353C67.1305 21.8617 67.5427 22.6249 68.266 22.84C68.3955 22.8786 68.5261 22.8969 68.6547 22.8969C69.2438 22.8969 69.7875 22.5111 69.9635 21.915L70.5352 19.9783L90.5244 25.9291C90.7839 26.0062 90.9978 26.1803 91.1267 26.419C91.2557 26.6571 91.2844 26.9321 91.2075 27.1925Z" fill="#ECB84C"/>
<path fill-rule="evenodd" clip-rule="evenodd" d="M64.0231 37.2148C63.3021 36.9993 62.5401 37.4132 62.3257 38.1399L60.6528 43.808C60.4386 44.5341 60.851 45.2976 61.5741 45.5127C61.7034 45.5513 61.8343 45.5696 61.9629 45.5696C62.5519 45.5696 63.0956 45.1837 63.2716 44.5874L64.9447 38.9193C65.1586 38.1931 64.746 37.4299 64.0231 37.2148Z" fill="#ECB84C"/>
<path fill-rule="evenodd" clip-rule="evenodd" d="M67.3693 25.8784C66.648 25.6633 65.8862 26.077 65.6718 26.8037L63.9987 32.4718C63.7846 33.1979 64.197 33.9611 64.9201 34.1762C65.0493 34.2149 65.18 34.2331 65.3088 34.2331C65.8979 34.2331 66.4416 33.8473 66.6175 33.2512L68.2906 27.5831C68.5048 26.8569 68.0924 26.0937 67.3693 25.8784Z" fill="#ECB84C"/>
<path fill-rule="evenodd" clip-rule="evenodd" d="M13.358 15.0531L14.6794 16.2057C14.6102 16.4581 14.6341 16.736 14.7682 16.984C14.9023 17.232 15.1214 17.4041 15.3698 17.4832L15.6147 19.2224C15.6224 19.2793 15.6741 19.3193 15.7303 19.3116C15.7423 19.3097 15.7542 19.3063 15.7651 19.3006L16.5629 18.8624C16.5906 18.848 16.6102 18.8222 16.6168 18.7913L16.9641 16.9808L19.0999 15.8172L19.7944 21.1705L21.1504 20.2345L22.257 14.0963L24.6027 12.8179C25.1098 12.5417 25.2978 11.9045 25.0226 11.3952C24.7475 10.886 24.1129 10.6969 23.6058 10.9733L21.2601 12.2519L15.5323 9.8382L14.0121 10.4702L18.1033 13.9724L15.9697 15.1356L14.2652 14.4403C14.2361 14.4286 14.2038 14.4313 14.1764 14.4469L13.3798 14.8807C13.3291 14.9061 13.3077 14.9678 13.3325 15.0195C13.3384 15.0325 13.3473 15.0439 13.358 15.0531Z" fill="#ECB84C"/>
<path fill-rule="evenodd" clip-rule="evenodd" d="M55.8231 42.0841L8.74226 28.0679C8.50214 27.9968 8.24791 28.1341 8.17644 28.3764L7.35252 31.1673C7.31815 31.2834 7.33135 31.4087 7.38893 31.5154C7.44652 31.6219 7.54393 31.7012 7.65978 31.7355L54.7408 45.7515C54.7831 45.7643 54.8268 45.7705 54.8701 45.7705C54.9452 45.7705 55.0198 45.7517 55.0872 45.7152C55.1933 45.6573 55.2723 45.5595 55.3066 45.4434L56.1303 42.6525C56.2016 42.41 56.0641 42.1559 55.8231 42.0841Z" fill="#ECB84C"/>
<path fill-rule="evenodd" clip-rule="evenodd" d="M57.7776 35.4624L10.6966 21.4462C10.581 21.4119 10.4563 21.4249 10.3502 21.4828C10.2441 21.5406 10.1652 21.6384 10.131 21.7545L9.30711 24.5458C9.23564 24.7879 9.37311 25.0423 9.61414 25.1138L56.6952 39.1296C56.7377 39.1424 56.7812 39.1486 56.8244 39.1486C56.8996 39.1486 56.9742 39.1298 57.0416 39.0933C57.1476 39.0354 57.2266 38.9376 57.261 38.8215L58.0847 36.0306C58.1562 35.7886 58.0187 35.5342 57.7776 35.4624Z" fill="#ECB84C"/>
<path fill-rule="evenodd" clip-rule="evenodd" d="M59.7319 28.8407L26.0565 18.8155C25.8157 18.744 25.5621 18.8816 25.4906 19.1241L24.6667 21.915C24.6324 22.0311 24.6456 22.1563 24.7031 22.2629C24.7607 22.3694 24.8581 22.4487 24.974 22.483L58.6501 32.5083C58.6927 32.5211 58.7361 32.5273 58.7794 32.5273C58.8545 32.5273 58.9292 32.5086 58.9965 32.472C59.1026 32.4142 59.1816 32.3161 59.2159 32.2L60.0392 29.4089C60.1104 29.1669 59.9729 28.9127 59.7319 28.8407Z" fill="#ECB84C"/>
<path fill-rule="evenodd" clip-rule="evenodd" d="M60.7335 25.9053C60.9297 25.9053 61.1111 25.7767 61.1696 25.578L61.9937 22.7872C62.0281 22.6708 62.0151 22.5456 61.9576 22.4391C61.9 22.3325 61.8026 22.2532 61.6869 22.2187L28.0108 12.1936C27.7702 12.122 27.5167 12.2599 27.445 12.5021L26.6211 15.293C26.5867 15.4091 26.5999 15.5344 26.6575 15.6409C26.7151 15.7474 26.8125 15.8267 26.9281 15.861L60.604 25.8861C60.6472 25.8994 60.6907 25.9053 60.7335 25.9053Z" fill="#ECB84C"/>
<path fill-rule="evenodd" clip-rule="evenodd" d="M58.453 61.3956H9.34717C9.09567 61.3956 8.89197 61.6004 8.89197 61.8528V64.7636C8.89197 65.0162 9.09567 65.2208 9.34717 65.2208H58.453C58.7042 65.2208 58.9082 65.0162 58.9082 64.7636V61.8528C58.9082 61.6002 58.7042 61.3956 58.453 61.3956Z" fill="#ECB84C"/>
<path fill-rule="evenodd" clip-rule="evenodd" d="M58.453 54.4891L9.34717 54.4889C9.22654 54.4889 9.11069 54.5371 9.02534 54.6228C8.93999 54.7085 8.89197 54.8249 8.89197 54.946V57.8571C8.89197 58.1095 9.09567 58.3143 9.34717 58.3143H58.453C58.7042 58.3143 58.9082 58.1095 58.9082 57.8571V54.9463C58.9082 54.6939 58.7042 54.4891 58.453 54.4891Z" fill="#ECB04C"/>
</symbol></svg>