<svg width="80" height="76" viewBox="0 0 80 76" fill="none" xmlns="http://www.w3.org/2000/svg">
<path fill-rule="evenodd" clip-rule="evenodd" d="M74.4828 0.0376587H68.9656H66.0691H57.9311H55.1725H46.8966H44.138H35.862H33.1034H24.8275H22.0689H13.7931H11.0345H5.37937C2.34484 0.0376587 0 2.38443 0 5.42146V16.603C0 18.5357 0.827656 20.4682 2.20688 21.7106C2.80594 22.1904 3.45734 22.5917 4.13797 22.8924V30.4075V74.5818C4.13797 75.4101 4.68969 75.9623 5.51734 75.9623H12.4139H31.7242H74.4828C75.3105 75.9623 75.8622 75.4101 75.8622 74.5818V30.4078V30.4076V22.896C78.2812 21.7327 80 19.1595 80 16.327V5.42146C80 2.38443 77.6552 0.0376587 74.4828 0.0376587ZM57.9311 2.79871H66.0691V16.6032C66.0691 16.8804 66.0911 17.1574 66.1292 17.4326C65.7622 19.3598 64.1287 20.7446 62.0691 20.7446C59.7242 20.7446 57.9311 18.95 57.9311 16.6032V2.79871ZM46.8965 2.79871H55.1725V16.6032C55.1725 18.95 53.3794 20.7446 51.0345 20.7446C48.6897 20.7446 46.8965 18.95 46.8965 16.6032V2.79871ZM35.8621 2.79871H44.138V16.6032C44.138 18.95 42.3449 20.7446 40 20.7446C37.6552 20.7446 35.8621 18.95 35.8621 16.6032V2.79871ZM24.8276 2.79871H33.1036V16.6032C33.1036 18.95 31.3104 20.7446 28.9656 20.7446C26.6208 20.7446 24.8276 18.95 24.8276 16.6032V2.79871ZM13.7932 2.79871H22.0691V16.6032C22.0691 18.95 20.276 20.7446 17.9311 20.7446C15.5863 20.7446 13.7932 18.95 13.7932 16.6032V16.327V2.79871ZM2.75861 16.603V5.42149C2.75861 3.90305 3.86204 2.79871 5.37923 2.79871H11.0344V16.327C11.0344 18.3915 9.58814 20.2144 7.7097 20.6692C7.50532 20.7073 7.29501 20.7314 7.07954 20.74C6.03704 20.7033 4.90829 20.411 4.13782 19.6401C3.31032 18.9498 2.75861 17.7074 2.75861 16.603ZM7.58623 23.5052C8.13217 23.4397 8.66076 23.3044 9.16389 23.1097C10.4589 22.652 11.5972 21.8235 12.3969 20.7656C13.645 22.4387 15.6426 23.5052 17.9311 23.5052C20.2094 23.5052 22.199 22.4478 23.4483 20.7874C24.6975 22.4478 26.6872 23.5052 28.9655 23.5052C31.2437 23.5052 33.2334 22.4478 34.4826 20.7874C35.7319 22.4478 37.7215 23.5052 39.9998 23.5052C42.2781 23.5052 44.2678 22.4478 45.517 20.7874C46.7662 22.4478 48.7559 23.5052 51.0342 23.5052C53.3125 23.5052 55.3022 22.4478 56.5514 20.7874C57.8006 22.4478 59.7903 23.5052 62.0686 23.5052C64.3403 23.5052 66.3248 22.4537 67.5747 20.8016C67.8311 21.1323 68.1115 21.4388 68.4133 21.7106C68.6342 21.8876 68.8631 22.0526 69.097 22.2071C70.0731 22.9002 71.2397 23.3548 72.4728 23.4721C72.4829 23.4732 72.4931 23.4739 72.5033 23.4749C72.5876 23.4825 72.6719 23.4899 72.7569 23.4944C72.8722 23.501 72.9875 23.5052 73.1028 23.5052V29.027H6.89655V23.5052C7.17233 23.5052 7.3103 23.5052 7.58623 23.5052ZM13.7932 73.2012V37.3097H30.3449V56.6359H27.5863C26.7586 56.6359 26.2069 57.1881 26.2069 58.0164C26.2069 58.8447 26.7586 59.3969 27.5863 59.3969H30.3449V73.2014H13.7932V73.2012ZM73.1034 73.2012H33.1034V35.9293C33.1034 35.101 32.5517 34.5488 31.724 34.5488H12.4137C11.5861 34.5488 11.0344 35.101 11.0344 35.9293V73.2014H6.89655V31.788H73.1034V73.2012ZM77.2414 16.327C77.2414 18.3667 75.9909 19.9885 74.3053 20.5596C74.2265 20.5668 74.1478 20.5802 74.0689 20.6065C73.8658 20.7081 73.5881 20.7347 73.3456 20.7417C72.2869 20.7141 71.1298 20.4257 70.3448 19.6401C69.5172 18.9498 68.9655 17.7074 68.9655 16.603V2.79871H74.6206C76.1378 2.79871 77.2412 4.04113 77.2412 5.42149V16.327H77.2414Z" fill="#ECB84C"/>
<path fill-rule="evenodd" clip-rule="evenodd" d="M38.6206 67.6796H45.5172H62.0689H68.9655C69.7931 67.6796 70.3448 67.1274 70.3448 66.2991V35.9294C70.3448 35.1011 69.7931 34.5489 68.9655 34.5489H60.6895H46.8964H38.6205C37.7928 34.5489 37.2411 35.1011 37.2411 35.9294V66.2992C37.2414 67.1274 37.7931 67.6796 38.6206 67.6796ZM57.9311 60.7773C58.7587 60.7773 59.3104 60.2252 59.3104 59.3968C59.3104 58.5685 58.7587 58.0163 57.9311 58.0163H49.6551C48.8275 58.0163 48.2758 58.5685 48.2758 59.3968C48.2758 60.2252 48.8275 60.7773 49.6551 60.7773H52.4137V64.9187H46.8575C46.5854 60.0025 44.8703 55.8972 42.3447 53.8751C45.5992 51.1391 47.9925 44.959 48.2514 37.3098H59.3333C59.5786 44.959 61.8565 51.1391 65.2412 53.8751C62.7158 55.8972 61.0004 60.0025 60.7284 64.9187H55.1722V60.7773H57.9311ZM67.5863 64.9187H63.4483C63.8621 60.2251 65.6552 56.774 67.5863 55.6697V64.9187ZM67.5862 37.3098V52.0805C64.8276 50.5621 62.3448 45.0402 62.069 37.3098H67.5862ZM40 37.3098H45.5172C45.2413 45.0403 42.6206 50.5621 40 52.0805V37.3098ZM40 55.6697C42.0689 56.774 43.862 60.2251 44.138 64.9187H40V55.6697Z" fill="#ECB84C"/>
<path fill-rule="evenodd" clip-rule="evenodd" d="M27.5863 49.7337V41.4509C27.5863 40.6226 27.0345 40.0704 26.2069 40.0704H17.9309C17.1033 40.0704 16.5516 40.6226 16.5516 41.4509V49.7337C16.5516 50.562 17.1033 51.1142 17.9309 51.1142H26.2069C27.0345 51.1142 27.5863 50.562 27.5863 49.7337ZM24.8277 48.3533H19.3105V42.8316H24.8277V48.3533Z" fill="#ECB84C"/>
</svg>
